<svg width="54" height="54" viewBox="0 0 54 54" fill="none" xmlns="http://www.w3.org/2000/svg">
<path d="M52.6654 34.2321C57.487 17.9744 48.8345 3.20462 33.3141 0C30.2872 1.29796 28.9149 2.561 26.9396 5.59349C25.0912 2.52386 23.7579 1.25338 21.0203 0C4.31495 3.11273 -3.4384 20.7869 1.44139 33.7846H9.63723V29.7573H4.401C2.35204 18.5704 8.95424 7.60714 20.3374 4.02726C23.5246 5.59348 27.1672 11.8582 23.7523 17.8992H30.3545C28.9885 15.438 27.1672 8.27836 33.7694 4.02731C44.4695 7.3834 51.9824 17.6754 49.7058 30.4286H44.5571V34.2321H52.6654Z" fill="#1F3457"/>
<path d="M48.223 36.3214C41.2575 54.8718 13.5577 55.4267 5.86331 36.3214H1.97561C9.20958 58.9498 43.7683 60.8174 52.3537 36.3214H48.223Z" fill="#1F3457"/>
</svg>
