<svg width="87" height="87" viewBox="0 0 87 87" fill="none" xmlns="http://www.w3.org/2000/svg">
<path d="M86.4129 43.2064C86.4129 67.0687 67.0687 86.4129 43.2064 86.4129C19.3442 86.4129 0 67.0687 0 43.2064C0 19.3442 19.3442 0 43.2064 0C67.0687 0 86.4129 19.3442 86.4129 43.2064Z" fill="#1F3457"/>
<path d="M68.6654 50.2321C73.487 33.9744 64.8345 19.2046 49.3141 16C46.2872 17.298 44.9148 18.561 42.9396 21.5935C41.0912 18.5239 39.7579 17.2534 37.0203 16C20.3149 19.1127 12.5616 36.7869 17.4414 49.7846H25.6372V45.7573H20.401C18.352 34.5704 24.9542 23.6071 36.3374 20.0273C39.5246 21.5935 43.1672 27.8582 39.7523 33.8992H46.3545C44.9885 31.438 43.1672 24.2784 49.7694 20.0273C60.4695 23.3834 67.9824 33.6754 65.7058 46.4286H60.5571V50.2321H68.6654Z" fill="#F5F5F5"/>
<path d="M64.223 52.3214C57.2575 70.8718 29.5577 71.4267 21.8633 52.3214H17.9756C25.2096 74.9498 59.7683 76.8174 68.3537 52.3214H64.223Z" fill="#F5F5F5"/>
</svg>
