<svg width="173" height="41" viewBox="0 0 173 41" fill="none" xmlns="http://www.w3.org/2000/svg">
<path d="M57.2159 38.2398C56.9225 38.4619 56.4652 38.6498 55.8438 38.8036C55.2225 38.9744 54.6099 39.0598 54.0058 39.0598C53.0048 39.0598 52.1074 38.8292 51.3135 38.3679C50.5196 37.9067 49.8896 37.2661 49.4237 36.4461C48.9577 35.6261 48.7247 34.6865 48.7247 33.6273C48.7247 32.5852 48.949 31.6627 49.3978 30.8598C49.8465 30.0569 50.4764 29.4334 51.2876 28.9892C52.116 28.5279 53.0738 28.2973 54.1611 28.2973C54.5926 28.2973 55.0154 28.3315 55.4296 28.3998C55.8611 28.4682 56.2926 28.5877 56.724 28.7586C56.8966 28.844 57.0174 28.9636 57.0865 29.1173C57.1728 29.254 57.2159 29.3907 57.2159 29.5273C57.2159 29.7494 57.1382 29.9459 56.9829 30.1167C56.8448 30.2875 56.655 30.3729 56.4134 30.3729C56.3098 30.3729 56.189 30.3473 56.0509 30.2961C55.7748 30.1936 55.4469 30.0996 55.0672 30.0142C54.7048 29.9288 54.3424 29.8861 53.9799 29.8861C53.2896 29.8861 52.6855 30.0654 52.1678 30.4242C51.65 30.7659 51.2444 31.2271 50.951 31.8079C50.6749 32.3888 50.5368 33.0294 50.5368 33.7298C50.5368 34.7719 50.8561 35.6602 51.4947 36.3948C52.1333 37.1294 52.9789 37.4967 54.0317 37.4967C54.4977 37.4967 54.955 37.4284 55.4038 37.2917C55.8525 37.1379 56.189 36.9757 56.4134 36.8048C56.6032 36.7023 56.7672 36.6511 56.9052 36.6511C57.1296 36.6511 57.3108 36.7365 57.4489 36.9073C57.587 37.0611 57.656 37.2404 57.656 37.4454C57.656 37.7529 57.5093 38.0177 57.2159 38.2398Z" fill="#1F3457"/>
<path d="M62.5656 38.8036C62.1341 38.8036 61.789 38.6754 61.5301 38.4192C61.2712 38.1629 61.1418 37.8213 61.1418 37.3942V29.2711C61.1418 28.9807 61.2367 28.7671 61.4265 28.6304C61.6336 28.4938 61.8494 28.4254 62.0737 28.4254C62.2981 28.4254 62.4966 28.4938 62.6691 28.6304C62.859 28.7671 62.9539 28.9807 62.9539 29.2711V36.5486C62.9539 36.8048 63.0057 36.9842 63.1092 37.0867C63.2128 37.1721 63.3854 37.2148 63.627 37.2148H66.2934C66.5696 37.2148 66.7681 37.3002 66.8889 37.4711C67.0269 37.6419 67.096 37.8213 67.096 38.0092C67.096 38.2142 67.0269 38.4021 66.8889 38.5729C66.7681 38.7267 66.5696 38.8036 66.2934 38.8036H62.5656Z" fill="#1F3457"/>
<path d="M71.8771 39.0598C71.6528 39.0598 71.4457 38.9829 71.2558 38.8292C71.066 38.6925 70.9711 38.4875 70.9711 38.2142V29.2711C70.9711 28.9807 71.066 28.7671 71.2558 28.6304C71.4457 28.4938 71.6528 28.4254 71.8771 28.4254C72.1188 28.4254 72.3259 28.4938 72.4984 28.6304C72.6883 28.7671 72.7832 28.9807 72.7832 29.2711V38.2142C72.7832 38.4875 72.6883 38.6925 72.4984 38.8292C72.3259 38.9829 72.1188 39.0598 71.8771 39.0598ZM70.298 26.1961L72.6797 24.3254C72.7487 24.2742 72.835 24.2229 72.9385 24.1717C73.0593 24.1034 73.1802 24.0692 73.301 24.0692C73.5081 24.0692 73.6893 24.1461 73.8446 24.2998C73.9999 24.4536 74.0776 24.65 74.0776 24.8892C74.0776 25.1454 73.9654 25.3419 73.7411 25.4786L70.9969 27.0929C70.9452 27.11 70.8934 27.1357 70.8416 27.1698C70.8071 27.1869 70.7467 27.1954 70.6604 27.1954C70.2635 27.1954 70.065 27.0161 70.065 26.6573C70.065 26.4694 70.1426 26.3157 70.298 26.1961Z" fill="#1F3457"/>
<path d="M77.9588 39.0598C77.7344 39.0598 77.5273 38.9915 77.3375 38.8548C77.1476 38.7182 77.0527 38.5132 77.0527 38.2398V29.6042C77.0527 29.2113 77.1735 28.9209 77.4151 28.7329C77.674 28.5279 77.9501 28.4254 78.2435 28.4254C78.6923 28.4254 79.0202 28.5963 79.2273 28.9379L83.4988 35.5748C83.5851 35.7115 83.68 35.7798 83.7835 35.7798C83.9389 35.7798 84.0165 35.6602 84.0165 35.4211L83.913 29.2454C83.913 28.9721 84.0079 28.7671 84.1977 28.6304C84.3876 28.4938 84.5947 28.4254 84.8191 28.4254C85.0434 28.4254 85.2505 28.4938 85.4404 28.6304C85.6302 28.7671 85.7251 28.9721 85.7251 29.2454V37.9323C85.7251 38.3082 85.6129 38.59 85.3886 38.7779C85.1642 38.9659 84.9053 39.0598 84.6119 39.0598C84.4048 39.0598 84.1977 39.0086 83.9906 38.9061C83.8008 38.8207 83.6368 38.6754 83.4988 38.4704L79.3049 32.0129C79.2186 31.8763 79.1237 31.8079 79.0202 31.8079C78.8648 31.8079 78.7872 31.9275 78.7872 32.1667L78.8648 38.2398C78.8648 38.5132 78.7699 38.7182 78.5801 38.8548C78.4075 38.9915 78.2004 39.0598 77.9588 39.0598Z" fill="#1F3457"/>
<path d="M90.8977 39.0598C90.6733 39.0598 90.4662 38.9829 90.2763 38.8292C90.0865 38.6925 89.9916 38.4875 89.9916 38.2142V29.2711C89.9916 28.9807 90.0865 28.7671 90.2763 28.6304C90.4662 28.4938 90.6733 28.4254 90.8977 28.4254C91.1393 28.4254 91.3464 28.4938 91.519 28.6304C91.7088 28.7671 91.8037 28.9807 91.8037 29.2711V38.2142C91.8037 38.4875 91.7088 38.6925 91.519 38.8292C91.3464 38.9829 91.1393 39.0598 90.8977 39.0598Z" fill="#1F3457"/>
<path d="M104.047 38.2398C103.753 38.4619 103.296 38.6498 102.675 38.8036C102.053 38.9744 101.441 39.0598 100.837 39.0598C99.8356 39.0598 98.9381 38.8292 98.1442 38.3679C97.3503 37.9067 96.7204 37.2661 96.2544 36.4461C95.7884 35.6261 95.5554 34.6865 95.5554 33.6273C95.5554 32.5852 95.7798 31.6627 96.2285 30.8598C96.6773 30.0569 97.3072 29.4334 98.1183 28.9892C98.9468 28.5279 99.9046 28.2973 100.992 28.2973C101.423 28.2973 101.846 28.3315 102.26 28.3998C102.692 28.4682 103.123 28.5877 103.555 28.7586C103.727 28.844 103.848 28.9636 103.917 29.1173C104.004 29.254 104.047 29.3907 104.047 29.5273C104.047 29.7494 103.969 29.9459 103.814 30.1167C103.676 30.2875 103.486 30.3729 103.244 30.3729C103.141 30.3729 103.02 30.3473 102.882 30.2961C102.606 30.1936 102.278 30.0996 101.898 30.0142C101.536 29.9288 101.173 29.8861 100.811 29.8861C100.12 29.8861 99.5163 30.0654 98.9985 30.4242C98.4808 30.7659 98.0752 31.2271 97.7818 31.8079C97.5057 32.3888 97.3676 33.0294 97.3676 33.7298C97.3676 34.7719 97.6869 35.6602 98.3254 36.3948C98.964 37.1294 99.8097 37.4967 100.862 37.4967C101.328 37.4967 101.786 37.4284 102.235 37.2917C102.683 37.1379 103.02 36.9757 103.244 36.8048C103.434 36.7023 103.598 36.6511 103.736 36.6511C103.96 36.6511 104.142 36.7365 104.28 36.9073C104.418 37.0611 104.487 37.2404 104.487 37.4454C104.487 37.7529 104.34 38.0177 104.047 38.2398Z" fill="#1F3457"/>
<path d="M107.927 39.0598C107.702 39.0598 107.504 38.9829 107.331 38.8292C107.159 38.6754 107.073 38.4704 107.073 38.2142C107.073 38.1288 107.09 38.0177 107.124 37.8811L110.36 29.1942C110.481 28.9038 110.662 28.6817 110.904 28.5279C111.146 28.3742 111.404 28.2973 111.681 28.2973C111.957 28.2973 112.216 28.3742 112.457 28.5279C112.716 28.6817 112.906 28.9038 113.027 29.1942L116.47 37.8811C116.504 38.0177 116.522 38.1288 116.522 38.2142C116.522 38.4704 116.435 38.6754 116.263 38.8292C116.09 38.9829 115.892 39.0598 115.667 39.0598C115.512 39.0598 115.348 39.0171 115.175 38.9317C115.02 38.8634 114.899 38.7438 114.813 38.5729L113.959 36.3179C113.941 36.2154 113.872 36.1642 113.752 36.1642H109.791C109.67 36.1642 109.592 36.2154 109.558 36.3179L108.781 38.5729C108.695 38.7438 108.565 38.8634 108.393 38.9317C108.237 39.0171 108.082 39.0598 107.927 39.0598ZM110.567 34.6267H112.897C113.001 34.6267 113.078 34.5925 113.13 34.5242C113.199 34.4388 113.217 34.3363 113.182 34.2167L111.939 30.7061C111.888 30.5352 111.81 30.4498 111.706 30.4498C111.586 30.4498 111.499 30.5352 111.448 30.7061L110.283 34.2423C110.248 34.3448 110.257 34.4388 110.308 34.5242C110.378 34.5925 110.464 34.6267 110.567 34.6267Z" fill="#1F3457"/>
<path d="M123.389 39.0598C122.63 39.0598 121.896 38.9317 121.188 38.6754C120.498 38.4192 119.963 38.0519 119.583 37.5736C119.445 37.3857 119.376 37.1977 119.376 37.0098C119.376 36.7877 119.463 36.5998 119.635 36.4461C119.825 36.2752 120.032 36.1898 120.257 36.1898C120.377 36.1898 120.498 36.2154 120.619 36.2667C120.74 36.3009 120.835 36.3692 120.904 36.4717C121.18 36.7963 121.551 37.0525 122.017 37.2404C122.5 37.4284 123.001 37.5223 123.518 37.5223C124.122 37.5223 124.614 37.3771 124.994 37.0867C125.391 36.7963 125.589 36.4119 125.589 35.9336C125.589 35.3869 125.356 35.0025 124.89 34.7804C124.442 34.5413 123.915 34.3704 123.311 34.2679C122.759 34.1654 122.198 34.0202 121.629 33.8323C121.059 33.6273 120.584 33.3369 120.205 32.9611C119.825 32.5682 119.635 32.0386 119.635 31.3723C119.635 30.4669 119.98 29.7494 120.671 29.2198C121.378 28.6902 122.319 28.4254 123.493 28.4254C124.114 28.4254 124.683 28.5194 125.201 28.7073C125.719 28.8782 126.15 29.1173 126.496 29.4248C126.703 29.5957 126.806 29.8092 126.806 30.0654C126.806 30.2704 126.728 30.4498 126.573 30.6036C126.418 30.7573 126.237 30.8342 126.03 30.8342C125.822 30.8342 125.624 30.7659 125.434 30.6292C124.882 30.185 124.2 29.9629 123.389 29.9629C122.008 29.9629 121.318 30.4242 121.318 31.3467C121.318 31.7909 121.525 32.0984 121.939 32.2692C122.371 32.4229 122.949 32.5852 123.674 32.7561C124.019 32.8244 124.39 32.9269 124.787 33.0636C125.201 33.1832 125.598 33.3625 125.978 33.6017C126.357 33.8238 126.668 34.1313 126.91 34.5242C127.151 34.9 127.272 35.3784 127.272 35.9592C127.272 36.8817 126.91 37.6334 126.185 38.2142C125.477 38.7779 124.545 39.0598 123.389 39.0598Z" fill="#1F3457"/>
<path d="M63.1552 1.46428H71.0547V2.02071H69.4275V21.4079H71.0547V21.9643H62.0309V21.4079H63.6582V3.10428H63.5398L59.1019 21.9643H55.4036L50.1965 3.01643H50.0781V21.4079H51.7054V21.9643H47.6817V21.4079H49.3089V2.02071H47.6817V1.46428H55.6699L59.6049 16.5464L63.1552 1.46428Z" fill="#1F3457"/>
<path d="M84.571 21.4079L82.4112 15.0821H76.5531L74.275 21.4079H76.4939V21.9643H71.9673V21.4079H73.3578L80.9023 1.28857H83.3283L90.784 21.4079H92.145V21.9643H82.4703V21.4079H84.571ZM79.6005 6.765L76.8194 14.4379H82.1745L79.6005 6.765Z" fill="#1F3457"/>
<path d="M102.693 1.72786C99.6362 1.72786 98.1075 4.64667 98.1075 10.4843V12.7979C98.1075 15.5702 98.5119 17.7471 99.3206 19.3286C100.129 20.8905 101.323 21.6714 102.9 21.6714C105.07 21.6714 107.062 19.5824 108.877 15.4043H109.409L109.202 21.935H108.877C108.759 21.7202 108.65 21.5738 108.551 21.4957C108.453 21.3981 108.305 21.3493 108.108 21.3493C107.93 21.3493 107.22 21.5055 105.977 21.8179C104.735 22.1107 103.472 22.2571 102.19 22.2571C98.9754 22.2571 96.4803 21.3981 94.7051 19.68C92.9497 17.9619 92.072 15.3848 92.072 11.9486C92.072 8.49286 92.9891 5.82786 94.8235 3.95357C96.6775 2.07929 99.1628 1.14214 102.279 1.14214C103.482 1.14214 104.656 1.29833 105.8 1.61071C106.964 1.90357 107.644 2.05 107.841 2.05C108.039 2.05 108.187 2.01095 108.285 1.93286C108.384 1.83524 108.492 1.67905 108.611 1.46428H108.936L109.173 7.81929H108.64C107.753 5.84738 106.835 4.34405 105.889 3.30928C104.962 2.255 103.897 1.72786 102.693 1.72786Z" fill="#1F3457"/>
<path d="M111.907 1.46428H127.292L127.588 7.26286H127.056C126.227 5.29095 125.359 3.94381 124.452 3.22143C123.545 2.47952 122.213 2.10857 120.458 2.10857H119.422V11.1579H120.428C121.355 11.1579 122.134 10.8162 122.766 10.1329C123.397 9.43 123.84 8.49286 124.097 7.32143H124.541V15.99H124.038C123.683 14.5257 123.199 13.4812 122.588 12.8564C121.996 12.2317 121.178 11.9193 120.132 11.9193H119.422V21.32H120.547C122.361 21.32 123.9 20.7831 125.162 19.7093C126.444 18.6355 127.322 17.259 127.795 15.58H128.387L128.15 21.9643H111.907V21.32H113.653V2.10857H111.907V1.46428Z" fill="#1F3457"/>
<path d="M150.873 11.3629C150.873 15.3848 149.729 18.1864 147.441 19.7679C145.331 21.2321 142.431 21.9643 138.743 21.9643H130.37V21.4079H132.323V2.02071H130.37V1.46428H139.512C143.299 1.46428 146.139 2.23547 148.033 3.77786C149.926 5.30071 150.873 7.82905 150.873 11.3629ZM138.092 21.4079H139.216C141.208 21.4079 142.628 20.7148 143.477 19.3286C144.344 17.9229 144.778 15.58 144.778 12.3V10.6014C144.778 6.20857 143.93 3.56309 142.234 2.665C141.425 2.23547 140.281 2.02071 138.802 2.02071H138.092V21.4079Z" fill="#1F3457"/>
<path d="M166.905 12.915V10.7479C166.905 7.175 166.728 4.92 166.373 3.98286C165.978 2.90905 165.416 2.24524 164.686 1.99143C164.272 1.83524 163.769 1.75714 163.177 1.75714C162.586 1.75714 162.073 1.83524 161.639 1.99143C161.225 2.14762 160.88 2.42095 160.603 2.81143C160.327 3.2019 160.1 3.6119 159.923 4.04143C159.765 4.47095 159.637 5.07619 159.538 5.85714C159.42 6.98952 159.361 8.65881 159.361 10.865V12.9736C159.361 15.3555 159.45 17.054 159.627 18.0693C159.824 19.065 160.061 19.7776 160.337 20.2071C160.949 21.1638 161.895 21.6421 163.177 21.6421C164.736 21.6421 165.742 20.9979 166.195 19.7093C166.669 18.4012 166.905 16.1364 166.905 12.915ZM163.118 22.2571C159.824 22.2571 157.359 21.3786 155.722 19.6214C154.104 17.8448 153.296 15.2871 153.296 11.9486C153.296 8.59048 154.163 5.95476 155.899 4.04143C157.655 2.10857 160.13 1.14214 163.325 1.14214C166.521 1.14214 168.927 2.05976 170.544 3.895C172.181 5.71071 173 8.29762 173 11.6557C173 15.0138 172.172 17.6202 170.515 19.475C168.878 21.3298 166.412 22.2571 163.118 22.2571Z" fill="#1F3457"/>
<path d="M40.3969 25.9911C44.0953 13.6473 37.4584 2.43313 25.5535 0C23.2318 0.985487 22.1791 1.94447 20.664 4.24691C19.2461 1.91626 18.2235 0.951642 16.1236 0C3.30977 2.36337 -2.63742 15.7826 1.10562 25.6512H7.39222V22.5935H3.37578C1.80413 14.0997 6.86834 5.77579 15.5997 3.05773C18.0445 4.2469 20.8386 9.00344 18.2191 13.5901H23.2834C22.2356 11.7215 20.8386 6.28542 25.9028 3.05777C34.1103 5.60592 39.873 13.4202 38.1267 23.1032H34.1775V25.9911H40.3969Z" fill="#1F3457"/>
<path d="M36.9894 27.5774C31.6465 41.6619 10.3994 42.0832 4.49744 27.5774H1.51539C7.06419 44.7582 33.5724 46.1762 40.1578 27.5774H36.9894Z" fill="#1F3457"/>
</svg>
